PathFileType	4	(X/Y/Z)	D:\TRACE\spot_10-12-23\spot_body_motion_2_5-platform.trc
DataRate	CameraRate	NumFrames	NumMarkers	Units	OrigDataRate	OrigDataStartFrame	OrigNumFrames
100.00	100.00	      66	5	mm	100.00	1751	      7000
Frame#	Time	Left_Front			Right_Front			Left_Aft			Right_Aft			Post			
		X1	Y1	Z1	X2	Y2	Z2	X3	Y3	Z3	X4	Y4	Z4	X5	Y5	Z5	

1751	17.500	-781.25000	42.10325	-631.97717	791.43420	46.41605	-625.36914	-697.86713	-19.54135	504.34070	719.55927	-19.19719	590.20654	1.59151	795.50916	-909.88629	
1752	17.510	-782.36243	40.92770	-632.39081	790.12305	45.29976	-625.65314	-699.07513	-18.47005	504.12756	718.17249	-18.14874	589.87329	0.43578	793.98511	-911.67578	
1753	17.520	-783.59796	39.87692	-632.74323	789.18768	43.88490	-625.77795	-700.19269	-17.84002	503.81265	717.34576	-17.17271	589.73090	-0.90085	792.21606	-913.39569	
1754	17.530	-784.67249	38.42428	-633.11774	787.96393	42.90001	-626.29834	-701.49829	-16.75972	503.38452	716.04309	-16.08663	589.48346	-2.01700	790.56171	-915.33832	
1755	17.540	-786.02197	37.26681	-633.46631	786.91425	41.44094	-626.81512	-702.52991	-15.80660	503.09189	714.86670	-15.09675	589.23590	-2.96873	788.53113	-916.90503	
1756	17.550	-786.92352	36.01600	-633.74408	785.81616	40.15855	-626.95740	-703.71210	-14.87736	502.94943	713.75616	-14.17490	588.97418	-4.08352	786.76239	-918.81696	
1757	17.560	-787.94196	34.69878	-634.16754	784.71912	38.92957	-627.26917	-704.74115	-14.03740	502.58612	712.53333	-13.02535	588.74481	-5.18132	784.84583	-920.80969	
1758	17.570	-789.17523	33.34604	-634.64471	783.56848	37.69834	-627.80341	-705.98212	-13.15080	502.30017	711.54999	-12.02749	588.51703	-6.54033	783.18024	-922.55579	
1759	17.580	-790.22601	31.99236	-635.05634	782.50714	36.17265	-628.05811	-707.06653	-12.27959	502.01202	710.36438	-10.72812	588.22571	-7.13850	781.16205	-924.51245	
1760	17.590	-791.36694	30.82140	-635.18451	781.22821	34.87519	-628.60229	-708.17456	-11.11174	501.78049	709.24524	-9.69078	587.96698	-8.47588	779.24475	-926.26831	
1761	17.600	-792.71118	29.62226	-635.80078	780.18933	33.57278	-628.95923	-709.34613	-10.28882	501.47955	708.01355	-8.52350	587.53070	-9.46062	777.27020	-928.26581	
1762	17.610	-793.63873	28.02907	-636.16656	778.78119	32.16848	-629.29840	-710.44446	-9.39608	501.04391	706.89752	-7.53913	587.24969	-10.87711	775.34753	-930.26086	
1763	17.620	-794.61566	26.55506	-636.43115	777.96320	30.90670	-629.62799	-711.69086	-8.51460	500.88046	705.86169	-6.36826	587.02344	-12.09840	773.30579	-932.21570	
1764	17.630	-795.90814	25.41702	-636.78888	776.93475	29.40541	-629.95752	-712.64984	-7.41226	500.49850	704.67322	-5.23132	586.65491	-13.07708	771.33752	-934.05182	
1765	17.640	-797.07190	24.05760	-637.18390	775.76544	28.14539	-630.26971	-713.67731	-6.82010	500.55991	703.56146	-4.14863	586.50598	-14.00512	769.34949	-935.87274	
1766	17.650	-798.10614	22.63791	-637.66034	774.44189	26.81060	-630.92926	-715.00745	-5.65705	500.09421	702.46490	-2.90534	586.11584	-15.29321	767.42828	-937.91943	
1767	17.660	-799.23328	21.19024	-637.94934	773.33978	25.33626	-631.09241	-716.20215	-4.65391	499.60403	701.27087	-1.90688	585.86664	-16.50865	765.49054	-939.85095	
1768	17.670	-800.42157	19.79239	-638.27026	772.37427	23.91873	-631.36517	-717.14185	-3.52194	499.42477	700.33740	-0.63658	585.62891	-17.33134	763.36615	-941.79041	
1769	17.680	-801.58148	18.23671	-638.61041	771.23322	22.45441	-631.78564	-718.34399	-2.68753	498.97452	699.05994	0.43260	585.22778	-18.45451	761.38226	-943.47467	
1770	17.690	-802.52106	16.89990	-639.15594	770.34747	21.08484	-632.23059	-719.48608	-1.68479	498.76810	698.15527	1.65670	584.94318	-19.36276	759.14960	-945.48029	
1771	17.700	-803.61774	15.56340	-639.50195	768.89868	19.60843	-632.57080	-720.52777	-0.68189	498.33435	696.98523	2.73920	584.55115	-20.82856	757.06732	-947.44189	
1772	17.710	-804.72229	14.12575	-639.75500	768.09802	18.44410	-632.81317	-721.50940	0.31314	498.17242	695.86011	3.92371	584.16791	-21.99736	754.99695	-949.45868	
1773	17.720	-805.77649	12.53022	-639.94855	766.96185	16.88848	-633.15222	-722.54395	1.32045	497.80258	694.91559	4.98106	583.96283	-22.71085	752.93207	-951.26160	
1774	17.730	-806.76862	11.38526	-640.37811	765.82605	15.33129	-633.61768	-723.55322	2.18099	497.45541	693.65051	6.23773	583.61133	-23.76092	750.83081	-953.19470	
1775	17.740	-808.03668	10.16507	-640.81110	764.94299	14.10588	-634.00671	-724.64612	3.13259	497.09930	692.82953	7.37575	583.28748	-24.98424	748.79016	-955.31323	
1776	17.750	-808.89990	8.46884	-641.11292	763.89618	12.54846	-634.29889	-725.68939	4.07897	496.85498	691.58423	8.51753	582.89673	-26.14798	746.83429	-957.29059	
1777	17.760	-809.70807	6.73957	-641.39246	762.75873	11.28488	-634.57690	-726.66766	5.25903	496.71414	690.70502	9.51454	582.53387	-26.70132	744.60382	-958.96088	
1778	17.770	-810.85864	5.56577	-641.74579	761.85089	9.63883	-634.98608	-727.75195	6.13460	496.00134	689.77783	10.77731	582.26746	-27.30813	742.42438	-961.06097	
1779	17.780	-812.11523	4.46383	-642.19781	760.80652	8.34610	-635.19971	-728.91321	7.03721	495.66592	688.62811	11.90364	581.88202	-28.49251	740.33411	-962.92096	
1780	17.790	-812.64081	2.70762	-642.53229	759.78790	7.02139	-635.70972	-729.84027	8.05277	495.28613	687.84973	13.11709	581.54413	-29.81397	738.35034	-964.98431	
1781	17.800	-813.68384	1.19859	-642.75208	758.85541	5.45774	-635.91589	-730.65118	9.16590	495.01352	686.68616	14.27810	581.08563	-30.68954	736.14032	-966.58429	
1782	17.810	-814.53601	-0.26562	-643.11725	758.12268	3.95285	-636.27173	-731.45508	10.04482	494.64340	685.70172	15.20509	580.81006	-31.47401	734.20221	-968.51465	
1783	17.820	-815.86322	-1.24820	-643.50342	756.75330	2.60580	-636.63354	-732.60242	10.98975	494.32669	684.93823	16.55251	580.57135	-32.59776	732.02618	-970.51428	
1784	17.830	-816.70862	-2.81377	-643.74506	755.92493	1.29270	-636.88776	-733.52216	11.88306	493.83746	683.88318	17.61662	580.18341	-33.52468	729.78979	-972.25214	
1785	17.840	-817.59558	-4.30382	-644.06940	755.19159	-0.17128	-637.35754	-734.41565	12.93966	493.60754	683.30243	18.87205	579.89569	-34.25897	727.61169	-974.14484	
1786	17.850	-818.30267	-5.85858	-644.36566	754.45752	-1.34771	-637.44586	-735.19647	13.73715	493.45343	682.24261	19.76634	579.47235	-35.52975	725.69049	-975.94562	
1787	17.860	-819.25836	-7.03672	-644.74097	753.21497	-3.07787	-637.83990	-736.19678	14.81723	493.02197	680.99249	20.91878	579.01697	-36.03438	723.47632	-977.82788	
1788	17.870	-820.14648	-8.51797	-645.01428	752.63922	-4.12873	-638.20441	-736.91504	15.61356	492.56012	680.34662	22.03619	578.79260	-36.93819	721.58911	-979.45544	
1789	17.880	-820.96198	-9.75033	-645.28632	751.73999	-5.66512	-638.51398	-737.81384	16.66550	492.17651	679.65070	23.15723	578.40063	-37.92847	719.62262	-981.37616	
1790	17.890	-821.60571	-11.12524	-645.45569	751.00031	-6.89185	-638.65601	-738.62744	17.62239	491.87027	678.84033	24.34650	578.00293	-38.56059	717.53778	-983.14307	
1791	17.900	-822.36316	-12.44019	-645.76782	750.18262	-8.21710	-638.97754	-739.35614	18.45344	491.57840	678.05548	25.24763	577.76013	-39.32051	715.44977	-984.77148	
1792	17.910	-823.02228	-14.07419	-646.04395	749.54779	-9.64676	-639.22827	-740.16919	19.24716	491.19342	677.17682	26.42522	577.31195	-40.15789	713.41400	-986.75195	
1793	17.920	-823.95490	-15.23467	-646.49365	748.82269	-10.96140	-639.45850	-741.03210	20.18210	490.82471	676.41888	27.40443	576.90118	-40.70634	711.46014	-988.15222	
1794	17.930	-824.78369	-16.61283	-646.79565	747.94257	-12.25512	-640.01025	-741.60498	21.19716	490.64951	675.84778	28.60090	576.62610	-41.25948	709.45630	-989.89746	
1795	17.940	-825.34613	-17.75826	-647.00970	747.14581	-13.47481	-640.18579	-742.20978	21.96480	490.37561	675.19244	29.54230	576.32019	-42.03077	707.53998	-991.57129	
1796	17.950	-825.94348	-19.13953	-647.16827	746.34357	-14.87228	-640.56213	-742.98828	22.93686	489.98389	674.54468	30.55981	575.77637	-42.66499	705.49713	-993.22614	
1797	17.960	-826.62726	-20.35678	-647.51166	746.14349	-15.90510	-640.60217	-743.49591	23.76891	489.53549	673.82336	31.63360	575.58270	-43.58661	703.42700	-995.00446	
1798	17.970	-827.21472	-21.71461	-647.58942	745.50415	-17.47573	-640.72552	-744.12262	24.61192	489.10849	673.30225	32.53105	575.32239	-44.03559	701.67719	-996.34863	
1799	17.980	-827.80597	-23.06127	-647.86389	744.96637	-19.04034	-640.98938	-744.71442	25.58848	488.81061	672.72278	33.61390	574.96924	-44.72727	699.83020	-998.18854	
1800	17.990	-828.14270	-24.54425	-648.11902	744.47565	-19.71148	-641.26654	-745.14764	26.16665	488.59326	672.10278	34.53101	574.61237	-45.10792	697.99695	-999.67853	
1801	18.000	-828.80786	-25.18773	-648.39288	743.67462	-21.01355	-641.67804	-745.75366	27.04009	488.13010	671.64612	35.36538	574.22784	-45.66704	695.98224	-1001.42279	
1802	18.010	-829.08258	-26.55549	-648.66327	743.44775	-22.21897	-641.71893	-746.27094	27.67701	487.99210	671.27570	36.39944	573.95612	-46.02232	694.23822	-1002.62311	
1803	18.020	-829.69513	-27.53193	-648.89606	742.78467	-23.59381	-642.25989	-746.60309	28.55344	487.61078	670.83575	37.40412	573.57385	-46.61772	692.44427	-1004.44067	
1804	18.030	-829.97357	-29.07479	-649.07666	742.64502	-24.58641	-642.31287	-746.91565	29.48935	487.37225	670.43573	38.19533	573.28625	-46.88273	690.68237	-1005.73505	
1805	18.040	-830.40454	-29.92821	-649.43213	742.36456	-25.73183	-642.62195	-747.26294	30.19667	487.16132	670.16119	39.12047	573.02576	-47.18841	688.70404	-1007.18805	
1806	18.050	-830.58167	-31.32819	-649.53552	741.96387	-26.90319	-642.69354	-747.66241	30.77890	486.82645	669.84070	40.14823	572.68707	-47.48947	687.20935	-1008.57800	
1807	18.060	-830.75629	-32.21107	-649.84564	741.90210	-28.06312	-642.93805	-747.79907	31.57588	486.42581	669.71210	40.91394	572.32153	-47.32844	685.44342	-1009.97827	
1808	18.070	-830.86517	-33.51430	-649.94763	741.81207	-29.02612	-643.02820	-747.96301	32.39762	486.12030	669.54871	41.73388	572.05701	-47.90862	683.61761	-1011.24274	
1809	18.080	-831.03668	-34.54592	-650.18176	741.79303	-30.32323	-643.05481	-747.96130	33.22881	485.88593	669.35938	42.88424	571.69983	-47.97283	681.93988	-1012.51306	
1810	18.090	-831.21741	-35.64709	-650.24945	741.71082	-31.24136	-643.49762	-748.19543	33.88257	485.51373	669.35577	43.60157	571.51862	-48.01431	680.31238	-1013.66815	
1811	18.100	-831.21149	-36.80948	-650.50714	741.56824	-32.45646	-643.59399	-748.29089	34.49572	485.25754	669.06769	44.31671	571.17993	-48.15590	678.81079	-1015.28107	
1812	18.110	-831.35974	-37.51461	-650.69250	741.59705	-33.21939	-643.79181	-748.30780	35.16092	484.84933	669.29358	45.17356	570.76611	-47.88643	677.20697	-1016.29431	
1813	18.120	-830.93066	-39.12759	-650.76544	741.63385	-34.27846	-643.98822	-748.20020	35.84451	484.53317	669.17896	45.98952	570.54291	-48.01958	675.49323	-1017.63672	
1814	18.130	-831.22675	-39.64246	-651.01465	741.64368	-35.22228	-644.00916	-747.98865	36.44039	484.45453	669.13202	46.77315	570.24316	-47.92491	674.25812	-1019.03009	
1815	18.140	-831.17065	-40.58420	-651.13885	741.51599	-36.24535	-644.20862	-748.25604	37.26109	484.23029	669.11176	47.53215	569.90247	-47.98093	672.62378	-1020.19122	
1816	18.150	-830.90277	-41.88035	-651.32861	741.73755	-37.05558	-644.43018	-748.23663	37.81428	484.01077	669.27545	48.10445	569.71570	-47.61153	671.10022	-1021.31085	
